<?xml version="1.0" standalone="no"?>
<!DOCTYPE svg PUBLIC "-//W3C//DTD SVG 20010904//EN"
 "http://www.w3.org/TR/2001/REC-SVG-20010904/DTD/svg10.dtd">
<svg version="1.0" xmlns="http://www.w3.org/2000/svg"
 width="1310.000000pt" height="1310.000000pt" viewBox="0 0 1310.000000 1310.000000"
 preserveAspectRatio="xMidYMid meet">
<metadata>
Created by potrace 1.11, written by Peter Selinger 2001-2013
</metadata>
<g transform="translate(0.000000,1310.000000) scale(0.100000,-0.100000)"
fill="#000000" stroke="none">
<path d="M6219 11418 c-90 -49 -202 -110 -249 -135 -47 -26 -101 -55 -120 -65
-19 -11 -39 -25 -45 -32 -7 -9 -9 -1610 -8 -4767 1 -2615 2 -4759 2 -4766 1
-9 340 -223 383 -241 5 -2 51 -30 104 -62 l96 -59 74 47 c41 26 92 58 114 72
22 14 114 71 203 128 l164 104 -3 601 c-6 1462 -16 3629 -19 4382 -2 451 -6
1459 -10 2240 -4 781 -7 1624 -9 1874 -1 340 -4 455 -13 458 -11 4 -79 46
-238 148 -27 17 -98 61 -156 97 l-106 66 -164 -90z"/>
<path d="M4810 10616 c-80 -45 -280 -159 -445 -253 -354 -201 -336 -191 -494
-282 -68 -39 -126 -71 -128 -71 -2 0 -20 -11 -41 -23 -35 -23 -73 -44 -179
-103 -27 -15 -88 -50 -138 -79 -49 -29 -121 -69 -160 -90 -38 -21 -82 -46 -97
-57 -14 -10 -28 -18 -30 -18 -3 0 -61 -32 -129 -71 -68 -39 -140 -80 -159 -91
-297 -169 -526 -299 -658 -375 -90 -51 -167 -93 -171 -93 -5 0 -15 -8 -23 -17
-12 -16 -14 -109 -13 -653 0 -615 1 -635 19 -632 10 2 31 12 45 22 23 16 261
155 391 228 25 14 61 35 80 47 33 21 61 36 175 100 28 15 61 35 75 45 14 9 32
20 40 24 8 4 24 12 35 19 11 7 82 48 158 92 76 44 153 88 170 99 18 10 149 86
292 169 143 82 280 162 305 177 25 15 66 39 93 54 l47 27 0 -2371 c0 -1711 -3
-2370 -11 -2370 -6 0 -23 8 -37 18 -15 11 -52 33 -82 49 -30 17 -174 99 -320
183 -146 84 -283 163 -305 175 l-40 23 2 193 c3 466 14 1967 17 2312 l3 377
-66 -36 c-36 -20 -86 -49 -111 -64 -25 -15 -112 -67 -195 -114 -82 -48 -157
-91 -165 -96 -8 -5 -114 -66 -234 -137 -120 -70 -238 -139 -261 -153 -23 -14
-59 -35 -81 -48 l-39 -23 1 -1432 c1 -788 2 -1435 3 -1438 1 -5 298 -178 436
-255 11 -6 47 -27 80 -46 33 -19 80 -47 105 -60 43 -25 854 -488 1420 -813
151 -87 289 -166 305 -176 17 -10 37 -22 45 -26 8 -4 132 -74 275 -156 143
-82 278 -159 301 -172 l41 -23 0 4284 c0 2356 -1 4284 -1 4284 -1 0 -66 -38
-146 -84z"/>
<path d="M7769 10694 c-1 -5 -2 -1932 -3 -4281 -1 -2844 2 -4273 9 -4272 5 0
240 132 520 292 l510 292 0 3674 0 3674 -130 79 c-71 43 -139 83 -150 90 -229
137 -733 443 -742 450 -7 6 -14 7 -14 2z"/>
<path d="M9659 9548 c-1 -17 -1 -6270 0 -6281 1 -7 48 17 181 93 64 37 104 59
230 128 36 20 87 48 113 64 26 15 50 28 53 28 2 0 21 10 42 23 20 13 71 42
112 64 41 22 143 79 225 125 l150 85 1 2531 c1 1884 -1 2534 -10 2540 -6 5
-47 28 -91 52 -44 24 -84 46 -90 50 -8 6 -122 69 -510 285 -27 15 -84 47 -125
70 -41 23 -102 57 -135 75 -33 18 -79 44 -102 57 -31 18 -43 21 -44 11z"/>
</g>
</svg>
